<svg xmlns="http://www.w3.org/2000/svg" viewBox="0 0 2000 500"><g id="jelvenydepo-1"><path d="M76.29,331.19q-18.29,0-32.53-8A56.74,56.74,0,0,1,21.55,301q-8-14.24-8-32.52a13,13,0,0,1,3.92-9.8,13.42,13.42,0,0,1,9.67-3.79,13,13,0,0,1,13.59,13.59,41.7,41.7,0,0,0,4.57,19.85A34,34,0,0,0,57.87,301.8a34.82,34.82,0,0,0,18.42,4.83,35.53,35.53,0,0,0,18.55-4.83,33.7,33.7,0,0,0,12.67-13.46,41.7,41.7,0,0,0,4.57-19.85V138.11a13.3,13.3,0,0,1,3.79-9.8,13,13,0,0,1,9.54-3.79,13.72,13.72,0,0,1,9.93,3.79,13.05,13.05,0,0,1,3.92,9.8V268.49q0,18.28-8.1,32.52A57.8,57.8,0,0,1,109,323.22Q94.84,331.2,76.29,331.19Z" style="fill:#ef415f"/><path d="M243,329.62q-21.69,0-38.54-9.27a67.84,67.84,0,0,1-26.39-25.61q-9.54-16.32-9.53-37.49,0-21.42,9-37.75a66,66,0,0,1,24.95-25.61q15.93-9.27,36.58-9.27,20.38,0,35,9a58.83,58.83,0,0,1,22.34,24.82q7.71,15.81,7.71,36.45a11,11,0,0,1-3.4,8.23,11.92,11.92,0,0,1-8.62,3.27H186.81V245.49H291.32l-10.72,7.32a56,56,0,0,0-5.22-23.38,39.69,39.69,0,0,0-14.11-16.33q-9.15-6-22.21-6-14.9,0-25.47,6.53a42,42,0,0,0-16.07,17.9A58.38,58.38,0,0,0,192,257.25a50.06,50.06,0,0,0,6.53,25.61,47.68,47.68,0,0,0,18,17.76q11.49,6.54,26.39,6.53a49.62,49.62,0,0,0,16.59-3,51.67,51.67,0,0,0,13.72-6.92,14.8,14.8,0,0,1,8.49-3,11.5,11.5,0,0,1,8,2.74q4.44,3.93,4.7,8.63t-4.18,8.1a72.22,72.22,0,0,1-22.08,11.49A78.76,78.76,0,0,1,243,329.62Z" style="fill:#ef415f"/><path d="M359,328.58a34.46,34.46,0,0,1-20.38-6.27,41.66,41.66,0,0,1-13.85-17.12q-5-10.83-5-24.95V137.59a13.07,13.07,0,1,1,26.13,0V280.24q0,9.67,3.66,15.94t9.4,6.27h6.53a10.83,10.83,0,0,1,8.49,3.66,13.59,13.59,0,0,1,3.27,9.4,11.22,11.22,0,0,1-5,9.41q-5,3.66-12.81,3.66Z" style="fill:#ef415f"/><path d="M430.83,328.32q-8.1,0-12.54-8.63L362.9,202.91a10.59,10.59,0,0,1-.39-8.76,12.45,12.45,0,0,1,6.66-6.66,10.9,10.9,0,0,1,9-.78,12,12,0,0,1,6.93,6l51.73,111.56H424.3l51.21-111.56a12,12,0,0,1,7.18-6,12.85,12.85,0,0,1,9.8.78,11.06,11.06,0,0,1,6.27,6.53,11.35,11.35,0,0,1-.52,8.89L442.85,319.69Q438.92,328.32,430.83,328.32Z" style="fill:#ef415f"/><path d="M574.53,329.62q-21.69,0-38.54-9.27a67.77,67.77,0,0,1-26.39-25.61q-9.54-16.32-9.53-37.49,0-21.42,9-37.75A65.91,65.91,0,0,1,534,193.89q15.93-9.27,36.58-9.27,20.37,0,35,9A58.83,58.83,0,0,1,628,218.45q7.69,15.81,7.71,36.45a11,11,0,0,1-3.4,8.23,11.94,11.94,0,0,1-8.62,3.27H518.35V245.49H622.86l-10.71,7.32a56,56,0,0,0-5.22-23.38,39.76,39.76,0,0,0-14.11-16.33q-9.15-6-22.21-6-14.9,0-25.48,6.53a42,42,0,0,0-16.06,17.9,58.38,58.38,0,0,0-5.49,25.73,50.06,50.06,0,0,0,6.53,25.61,47.61,47.61,0,0,0,18,17.76q11.49,6.54,26.39,6.53a49.67,49.67,0,0,0,16.59-3,51.44,51.44,0,0,0,13.71-6.92,14.85,14.85,0,0,1,8.5-3,11.46,11.46,0,0,1,8,2.74q4.44,3.93,4.71,8.63t-4.18,8.1a72.46,72.46,0,0,1-22.08,11.49A78.76,78.76,0,0,1,574.53,329.62ZM569,163.19a12.94,12.94,0,0,1-13.32-13.32,12.6,12.6,0,0,1,3.13-8.89l25.61-25.6a12.82,12.82,0,0,1,9.4-3.92,12.61,12.61,0,0,1,9.67,3.92,13.63,13.63,0,0,1,3.66,9.67,15.39,15.39,0,0,1-.79,5,9.47,9.47,0,0,1-2.87,4.18l-25.34,25.35A12.42,12.42,0,0,1,569,163.19Z" style="fill:#ef415f"/><path d="M669.89,328.84a13,13,0,0,1-13.33-13.33V199a12.85,12.85,0,0,1,3.79-9.67A13.27,13.27,0,0,1,683.21,199V315.51a13.19,13.19,0,0,1-3.65,9.54A12.84,12.84,0,0,1,669.89,328.84Zm107.38,0A12.94,12.94,0,0,1,764,315.51V251.24q0-14.9-5.49-24.3a34.52,34.52,0,0,0-14.76-14,47.59,47.59,0,0,0-21.3-4.58,43.91,43.91,0,0,0-19.85,4.44,37.16,37.16,0,0,0-14.11,11.89,29,29,0,0,0-5.23,17.12H666.75a54.91,54.91,0,0,1,8-29.4,57.54,57.54,0,0,1,21.82-20.51,63.68,63.68,0,0,1,31.09-7.57q18,0,32.27,7.7a55.7,55.7,0,0,1,22.47,22.6q8.22,14.9,8.23,36.58v64.27a13,13,0,0,1-13.33,13.33Z" style="fill:#ef415f"/><path d="M878.12,322.83a11.87,11.87,0,0,1-9.28.39,13.47,13.47,0,0,1-6.92-6.66L802.09,202.91a10.63,10.63,0,0,1-.65-9.54,12.35,12.35,0,0,1,6.92-6.66,12.22,12.22,0,0,1,9.41-.39,12.37,12.37,0,0,1,6.79,6.66l57.22,113.65a15.6,15.6,0,0,1,2,9.54Q883.08,320.75,878.12,322.83Zm-30.83,68.45a16.53,16.53,0,0,1-6.27-1.56q-11.5-5.24-6.27-16.46l79.69-180q5.22-11,16.46-6.27,11.76,5,6.53,16.46L857.48,383.18Q854.35,391.28,847.29,391.28Z" style="fill:#ef415f"/><path d="M962.51,328.58q-6.27,0-9.67-3.27t-3.4-9.8V198.73q0-6.27,3.4-9.67t9.67-3.4q6.53,0,9.8,3.27t3.26,9.8V315.51q0,6.27-3.26,9.67T962.51,328.58Zm-.26-89.36a52.09,52.09,0,0,1,7.7-28.08,56.51,56.51,0,0,1,20.78-19.73,57.84,57.84,0,0,1,28.73-7.32q15.69,0,23.39,5.1t5.88,12.15a10,10,0,0,1-3,5.62,10.45,10.45,0,0,1-5.09,2.48,15.48,15.48,0,0,1-6.27-.26q-16.72-3.39-30-.53t-21,10.72q-7.71,7.83-7.71,19.85Z" style="fill:#ef415f"/><path d="M1120.05,329.62q-21.69,0-38.53-9.27a67.7,67.7,0,0,1-26.39-25.61q-9.54-16.32-9.54-37.49,0-21.42,9-37.75a65.84,65.84,0,0,1,25-25.61q15.93-9.27,36.57-9.27,20.38,0,35,9a58.81,58.81,0,0,1,22.33,24.82q7.71,15.81,7.71,36.45a10.92,10.92,0,0,1-3.4,8.23,11.9,11.9,0,0,1-8.62,3.27H1063.88V245.49h104.51l-10.71,7.32a56,56,0,0,0-5.23-23.38,39.61,39.61,0,0,0-14.11-16.33q-9.15-6-22.21-6-14.88,0-25.47,6.53a42.09,42.09,0,0,0-16.07,17.9,58.38,58.38,0,0,0-5.48,25.73,50,50,0,0,0,6.53,25.61,47.61,47.61,0,0,0,18,17.76q11.49,6.54,26.38,6.53a49.62,49.62,0,0,0,16.59-3,51.51,51.51,0,0,0,13.72-6.92,14.8,14.8,0,0,1,8.49-3,11.47,11.47,0,0,1,8,2.74q4.44,3.93,4.7,8.63t-4.18,8.1a72.28,72.28,0,0,1-22.07,11.49A78.81,78.81,0,0,1,1120.05,329.62Z" style="fill:#ef415f"/><path d="M1215.42,328.84a13,13,0,0,1-13.33-13.33V199a12.81,12.81,0,0,1,3.79-9.67,13.27,13.27,0,0,1,22.86,9.67V315.51a13.16,13.16,0,0,1-3.66,9.54A12.8,12.8,0,0,1,1215.42,328.84Zm107.38,0a13,13,0,0,1-13.33-13.33V251.24q0-14.9-5.48-24.3a34.48,34.48,0,0,0-14.77-14,47.51,47.51,0,0,0-21.29-4.58,44,44,0,0,0-19.86,4.44,37.21,37.21,0,0,0-14.1,11.89,29,29,0,0,0-5.23,17.12h-16.46a54.82,54.82,0,0,1,8-29.4,57.54,57.54,0,0,1,21.82-20.51,63.68,63.68,0,0,1,31.09-7.57q18,0,32.26,7.7a55.58,55.58,0,0,1,22.47,22.6q8.23,14.9,8.23,36.58v64.27a13,13,0,0,1-13.32,13.33Z" style="fill:#ef415f"/><path d="M1432,329.62q-20.38,0-36.71-9.53a70.6,70.6,0,0,1-25.87-26q-9.54-16.45-9.53-37.1t8.75-37a67.81,67.81,0,0,1,23.9-25.87,63,63,0,0,1,34.23-9.53,64.3,64.3,0,0,1,50.43,23.77V137.85a12.81,12.81,0,0,1,3.79-9.67,13.27,13.27,0,0,1,22.86,9.67V257q0,20.64-9.54,37.1a70.93,70.93,0,0,1-25.74,26Q1452.38,329.63,1432,329.62Zm0-23.51a44.57,44.57,0,0,0,23.77-6.4,45.31,45.31,0,0,0,16.46-17.64,52.28,52.28,0,0,0,6-25.08,51.29,51.29,0,0,0-6-25.08,45.77,45.77,0,0,0-16.46-17.38,47.12,47.12,0,0,0-47.42,0,46.44,46.44,0,0,0-16.72,17.38A50.49,50.49,0,0,0,1385.5,257a51.47,51.47,0,0,0,6.14,25.08,45.94,45.94,0,0,0,16.72,17.64A44.77,44.77,0,0,0,1432,306.11Z" style="fill:#ef415f"/><path d="M1605,329.62q-21.69,0-38.54-9.27A67.77,67.77,0,0,1,1540,294.74q-9.54-16.32-9.54-37.49,0-21.42,9-37.75a65.91,65.91,0,0,1,25-25.61q15.93-9.27,36.58-9.27,20.37,0,35,9a58.83,58.83,0,0,1,22.34,24.82q7.69,15.81,7.7,36.45a11,11,0,0,1-3.39,8.23,11.94,11.94,0,0,1-8.63,3.27H1548.79V245.49H1653.3l-10.71,7.32a56,56,0,0,0-5.23-23.38,39.61,39.61,0,0,0-14.11-16.33q-9.13-6-22.2-6-14.9,0-25.48,6.53a42.09,42.09,0,0,0-16.07,17.9,58.52,58.52,0,0,0-5.48,25.73,50,50,0,0,0,6.53,25.61,47.61,47.61,0,0,0,18,17.76q11.49,6.54,26.39,6.53a49.71,49.71,0,0,0,16.59-3,51.59,51.59,0,0,0,13.71-6.92,14.85,14.85,0,0,1,8.49-3,11.47,11.47,0,0,1,8,2.74q4.44,3.93,4.71,8.63t-4.18,8.1a72.46,72.46,0,0,1-22.08,11.49A78.76,78.76,0,0,1,1605,329.62Z" style="fill:#ef415f"/><path d="M1721,328.58a34.44,34.44,0,0,1-20.38-6.27,41.66,41.66,0,0,1-13.85-17.12q-5-10.83-5-24.95V137.59a13.06,13.06,0,1,1,26.12,0V280.24q0,9.67,3.66,15.94t9.41,6.27h6.53a10.85,10.85,0,0,1,8.49,3.66,13.59,13.59,0,0,1,3.27,9.4,11.21,11.21,0,0,1-5,9.41q-5,3.66-12.8,3.66Z" style="fill:#ef415f"/><path d="M1811.63,329.62q-21.69,0-38.54-9.27a67.77,67.77,0,0,1-26.39-25.61q-9.54-16.32-9.54-37.49,0-21.42,9-37.75a65.91,65.91,0,0,1,25-25.61q15.93-9.27,36.58-9.27,20.37,0,35,9a58.83,58.83,0,0,1,22.34,24.82q7.7,15.81,7.7,36.45a11,11,0,0,1-3.39,8.23,11.94,11.94,0,0,1-8.62,3.27h-105.3V245.49H1860l-10.71,7.32a56,56,0,0,0-5.23-23.38,39.66,39.66,0,0,0-14.1-16.33q-9.15-6-22.21-6-14.89,0-25.48,6.53a42,42,0,0,0-16.06,17.9,58.38,58.38,0,0,0-5.49,25.73,50,50,0,0,0,6.53,25.61,47.61,47.61,0,0,0,18,17.76q11.49,6.54,26.39,6.53a49.71,49.71,0,0,0,16.59-3,51.44,51.44,0,0,0,13.71-6.92,14.85,14.85,0,0,1,8.49-3,11.47,11.47,0,0,1,8,2.74q4.44,3.93,4.71,8.63t-4.18,8.1a72.46,72.46,0,0,1-22.08,11.49A78.76,78.76,0,0,1,1811.63,329.62Zm-5.49-166.43a13,13,0,0,1-13.33-13.32A12.6,12.6,0,0,1,1796,141l25.6-25.6a12.86,12.86,0,0,1,9.41-3.92,12.63,12.63,0,0,1,9.67,3.92,13.68,13.68,0,0,1,3.66,9.67,15.66,15.66,0,0,1-.79,5,9.47,9.47,0,0,1-2.87,4.18l-25.35,25.35A12.38,12.38,0,0,1,1806.14,163.19Z" style="fill:#ef415f"/><path d="M1945.66,329.62a99,99,0,0,1-33.84-5.61q-15.54-5.62-24.17-14.24a11.38,11.38,0,0,1-3.26-9.54,12.54,12.54,0,0,1,5.09-8.75c3.48-2.79,6.93-4,10.32-3.53a14.16,14.16,0,0,1,8.75,4.57q4.44,5,14.24,9.28a53.72,53.72,0,0,0,21.82,4.31q15.15,0,23.12-5t8.23-12.8q.26-7.83-7.44-13.58t-28.09-9.41q-26.4-5.22-38.28-15.68t-11.88-25.6q0-13.32,7.83-22.08a47.58,47.58,0,0,1,20.12-13.06,76.6,76.6,0,0,1,25.61-4.31q17.24,0,30.56,5.48t21.17,15.16A12,12,0,0,1,1999,214a10.1,10.1,0,0,1-4.44,7.71,12.79,12.79,0,0,1-9.93,1.83,18.65,18.65,0,0,1-9.66-4.71,35.67,35.67,0,0,0-14.11-8.62,59.14,59.14,0,0,0-17.51-2.35q-11.49,0-19.46,3.92t-8,11.5a15.13,15.13,0,0,0,2.48,8.49q2.49,3.78,9.8,6.79t21.42,5.88q19.61,3.92,31,9.93t16.32,14a34.14,34.14,0,0,1,5,18.42,38.45,38.45,0,0,1-6.4,21.69q-6.4,9.68-18.81,15.42T1945.66,329.62Z" style="fill:#ef415f"/></g></svg>