<svg id="jelvenydepo" xmlns="http://www.w3.org/2000/svg" xmlns:xlink="http://www.w3.org/1999/xlink" viewBox="0 0 2096 2096"><defs><clipPath id="clip-path"><circle cx="1050" cy="1048" r="1048" style="fill:none"/></clipPath></defs><g style="clip-path:url(#clip-path)"><circle cx="1050" cy="1048" r="1048" style="fill:#29a3dc"/><circle cx="1130.78" cy="1070.93" r="1009.79" style="fill:#fff"/><path d="M369.16,1044.86q-31.52,0-56-13.73a97.57,97.57,0,0,1-38.25-38.25q-13.72-24.51-13.72-56,0-10.35,6.75-16.88a23.05,23.05,0,0,1,16.65-6.52q10.33,0,16.87,6.52T308,936.86q0,19.35,7.87,34.2a58.5,58.5,0,0,0,21.6,23.17q13.72,8.34,31.73,8.33t31.95-8.33a58,58,0,0,0,21.82-23.17q7.88-14.85,7.88-34.2V712.31q0-10.35,6.52-16.88a22.3,22.3,0,0,1,16.43-6.52q10.33,0,17.1,6.52t6.75,16.88V936.86q0,31.5-13.95,56a99.63,99.63,0,0,1-38.25,38.25Q401.11,1044.87,369.16,1044.86Z" style="fill:#29a3dc"/><path d="M656.25,1042.16q-37.35,0-66.37-16a116.67,116.67,0,0,1-45.45-44.1Q528,954,528,917.51q0-36.9,15.53-65a113.64,113.64,0,0,1,43-44.1q27.45-16,63-16,35.1,0,60.3,15.52a101.31,101.31,0,0,1,38.48,42.75q13.26,27.24,13.27,62.78a18.81,18.81,0,0,1-5.85,14.17q-5.85,5.64-14.85,5.63H559.5v-36h180l-18.45,12.6q-.45-22.5-9-40.28a68.37,68.37,0,0,0-24.3-28.12Q672,831.11,649.5,831.11q-25.65,0-43.87,11.25A72.47,72.47,0,0,0,578,873.18q-9.45,19.58-9.45,44.33t11.25,44.1a82.2,82.2,0,0,0,31,30.6q19.8,11.25,45.45,11.25a85.16,85.16,0,0,0,28.58-5.18q14.61-5.16,23.62-11.92a25.61,25.61,0,0,1,14.63-5.18,19.72,19.72,0,0,1,13.72,4.73q7.65,6.75,8.1,14.85t-7.2,14q-15.3,12.15-38,19.8T656.25,1042.16Z" style="fill:#29a3dc"/><path d="M856.05,1040.36q-19.81,0-35.1-10.8t-23.85-29.48q-8.57-18.66-8.55-43V711.41q0-9.9,6.3-16.2t16.2-6.3q9.88,0,16.2,6.3t6.3,16.2v245.7q0,16.65,6.3,27.45t16.2,10.8H867.3a18.69,18.69,0,0,1,14.62,6.3q5.63,6.3,5.63,16.2t-8.55,16.2q-8.57,6.3-22,6.3Z" style="fill:#29a3dc"/><path d="M979.79,1039.91q-13.95,0-21.6-14.85l-95.4-201.15a18.27,18.27,0,0,1-.67-15.08q2.91-7.43,11.47-11.47A18.85,18.85,0,0,1,889.12,796,20.76,20.76,0,0,1,901,806.36l89.1,192.15h-21.6l88.2-192.15A20.7,20.7,0,0,1,1069.12,796a22.17,22.17,0,0,1,16.87,1.35,19,19,0,0,1,10.8,11.25,19.46,19.46,0,0,1-.9,15.3l-95.4,201.15Q993.74,1039.91,979.79,1039.91Z" style="fill:#29a3dc"/><path d="M1227.29,1042.16q-37.35,0-66.37-16a116.6,116.6,0,0,1-45.45-44.1Q1099,954,1099,917.51q0-36.9,15.53-65a113.64,113.64,0,0,1,43-44.1q27.45-16,63-16,35.1,0,60.3,15.52a101.31,101.31,0,0,1,38.48,42.75q13.26,27.24,13.27,62.78a18.81,18.81,0,0,1-5.85,14.17q-5.85,5.64-14.85,5.63H1130.54v-36h180l-18.45,12.6q-.45-22.5-9-40.28a68.37,68.37,0,0,0-24.3-28.12q-15.75-10.35-38.25-10.35-25.65,0-43.87,11.25A72.47,72.47,0,0,0,1149,873.18q-9.45,19.58-9.45,44.33t11.25,44.1a82.2,82.2,0,0,0,31,30.6q19.8,11.25,45.45,11.25a85.2,85.2,0,0,0,28.58-5.18q14.61-5.16,23.62-11.92a25.58,25.58,0,0,1,14.63-5.18,19.72,19.72,0,0,1,13.72,4.73q7.65,6.75,8.1,14.85t-7.2,14q-15.3,12.15-38,19.8T1227.29,1042.16Zm-9.45-286.65a22.33,22.33,0,0,1-22.95-23q0-9.45,5.4-15.3l44.1-44.1a22.09,22.09,0,0,1,16.2-6.75q10.35,0,16.65,6.75a23.48,23.48,0,0,1,6.3,16.65,26.86,26.86,0,0,1-1.35,8.55,16.43,16.43,0,0,1-5,7.2l-43.65,43.65A21.37,21.37,0,0,1,1217.84,755.51Z" style="fill:#29a3dc"/><path d="M1391.54,1040.81a22.31,22.31,0,0,1-23-22.95V817.16q0-10.35,6.52-16.65t16.43-6.3q10.34,0,16.65,6.3t6.3,16.65v200.7a22.71,22.71,0,0,1-6.3,16.42Q1401.88,1040.82,1391.54,1040.81Zm185,0a22.31,22.31,0,0,1-23-22.95V907.16q0-25.65-9.45-41.85a59.6,59.6,0,0,0-25.43-24.08q-16-7.86-36.67-7.87a75.37,75.37,0,0,0-34.2,7.65,63.78,63.78,0,0,0-24.3,20.47,50,50,0,0,0-9,29.48h-28.35q0-28.35,13.72-50.63A99,99,0,0,1,1437.44,805Q1461.28,792,1491,792q31,0,55.57,13.27t38.7,38.93q14.17,25.65,14.18,63v110.7a22.33,22.33,0,0,1-23,22.95Z" style="fill:#29a3dc"/><path d="M1750.18,1030.46q-8.55,3.6-16,.67t-11.93-11.47l-103-195.75q-4.5-8.55-1.12-16.43A21.37,21.37,0,0,1,1630,796q8.55-3.6,16.2-.68t11.7,11.48l98.55,195.75q4.5,8.55,3.38,16.42T1750.18,1030.46Zm-53.1,117.9a28.34,28.34,0,0,1-10.8-2.7q-19.8-9-10.8-28.35l137.25-310q9-18.9,28.35-10.8,20.25,8.55,11.25,28.35l-137.7,309.6Q1709.23,1148.35,1697.08,1148.36Z" style="fill:#29a3dc"/><path d="M672.78,1451.33q-31.2,0-56.2-14.6a107.92,107.92,0,0,1-39.6-39.8q-14.61-25.2-14.6-56.8t13.4-56.6a103.8,103.8,0,0,1,36.6-39.6q23.19-14.6,52.4-14.6a98.41,98.41,0,0,1,77.2,36.4v-108q0-9.2,5.8-14.8a20.17,20.17,0,0,1,14.6-5.6q9.2,0,14.8,5.6t5.6,14.8v182.4q0,31.61-14.6,56.8a108.52,108.52,0,0,1-39.4,39.8Q704,1451.34,672.78,1451.33Zm0-36q20.4,0,36.4-9.8a69.36,69.36,0,0,0,25.2-27q9.2-17.19,9.2-38.4,0-21.6-9.2-38.4a70.21,70.21,0,0,0-25.2-26.6q-16-9.8-36.4-9.8a68.59,68.59,0,0,0-36.2,9.8,71.08,71.08,0,0,0-25.6,26.6q-9.4,16.8-9.4,38.4,0,21.21,9.4,38.4a70.19,70.19,0,0,0,25.6,27A68.49,68.49,0,0,0,672.78,1415.33Z" style="fill:#29a3dc"/><path d="M937.57,1451.33q-33.21,0-59-14.2a103.74,103.74,0,0,1-40.4-39.2q-14.61-25-14.6-57.4,0-32.79,13.8-57.8a101,101,0,0,1,38.2-39.2q24.39-14.19,56-14.2,31.2,0,53.6,13.8a90,90,0,0,1,34.2,38q11.79,24.21,11.8,55.8a16.76,16.76,0,0,1-5.2,12.6,18.25,18.25,0,0,1-13.2,5H851.57v-32h160l-16.4,11.2q-.4-20-8-35.8a60.85,60.85,0,0,0-21.6-25q-14-9.2-34-9.2-22.8,0-39,10a64.44,64.44,0,0,0-24.6,27.4q-8.4,17.4-8.4,39.4t10,39.2a72.9,72.9,0,0,0,27.6,27.2q17.6,10,40.4,10a75.84,75.84,0,0,0,25.4-4.6q13-4.59,21-10.6a22.74,22.74,0,0,1,13-4.6,17.53,17.53,0,0,1,12.2,4.2q6.8,6,7.2,13.2t-6.4,12.4q-13.61,10.8-33.8,17.6A120.8,120.8,0,0,1,937.57,1451.33Z" style="fill:#29a3dc"/><path d="M1083.57,1543.33a19.82,19.82,0,0,1-20.4-20.4v-182.4q.39-31.59,14.79-56.8a107,107,0,0,1,39.21-39.8q24.8-14.6,56-14.6,31.59,0,56.4,14.6a108.5,108.5,0,0,1,39.39,39.8q14.61,25.2,14.61,56.8t-13.4,56.6a103.81,103.81,0,0,1-36.6,39.6q-23.21,14.61-52.4,14.6a96.34,96.34,0,0,1-43.4-9.8,103,103,0,0,1-33.81-26.6v108a20.18,20.18,0,0,1-5.59,14.6Q1092.76,1543.34,1083.57,1543.33Zm89.6-128q20.4,0,36.4-9.8a71.08,71.08,0,0,0,25.39-26.8q9.4-17,9.41-38.2,0-21.6-9.41-38.6a71.23,71.23,0,0,0-25.39-26.8q-16-9.8-36.4-9.8a68.76,68.76,0,0,0-61.6,36.6q-9.21,17-9.2,38.6,0,21.21,9.2,38.2a68.76,68.76,0,0,0,61.6,36.6Z" style="fill:#29a3dc"/><path d="M1423.56,1451.33q-32.4,0-57.2-14.2a102.76,102.76,0,0,1-39-39.2q-14.2-25-14.2-57.4,0-32.79,14.2-57.8a102.9,102.9,0,0,1,39-39.2q24.8-14.19,57.2-14.2,32,0,56.8,14.2a103,103,0,0,1,39,39.2q14.19,25,14.2,57.8,0,32.4-14,57.4a101.5,101.5,0,0,1-38.8,39.2Q1456,1451.33,1423.56,1451.33Zm0-36q20.79,0,36.8-9.6a67.18,67.18,0,0,0,25-26.4q9-16.8,9-38.8t-9-39a66.86,66.86,0,0,0-25-26.6q-16-9.6-36.8-9.6t-36.8,9.6a68.18,68.18,0,0,0-25.2,26.6q-9.21,17-9.2,39t9.2,38.8a68.52,68.52,0,0,0,25.2,26.4Q1402.75,1415.33,1423.56,1415.33Z" style="fill:#29a3dc"/></g></svg>