<svg xmlns="http://www.w3.org/2000/svg" xmlns:xlink="http://www.w3.org/1999/xlink" viewBox="0 0 2096 2096"><defs><clipPath id="clip-path"><circle cx="1049" cy="1047" r="1047" style="fill:none"/></clipPath></defs><g id="jelvenyrendeles"><g style="clip-path:url(#clip-path)"><circle cx="1049" cy="1047" r="1047" style="fill:#ef415f"/><circle cx="1129.71" cy="1069.9" r="1008.83" style="fill:#fff"/><path d="M369.16,1043.87q-31.52,0-56-13.73a97.63,97.63,0,0,1-38.25-38.25q-13.72-24.52-13.72-56,0-10.35,6.75-16.88a23.05,23.05,0,0,1,16.65-6.52q10.33,0,16.87,6.52T308,935.87q0,19.35,7.87,34.2a58.56,58.56,0,0,0,21.6,23.17q13.72,8.34,31.73,8.33t31.95-8.33a58.11,58.11,0,0,0,21.82-23.17q7.88-14.85,7.88-34.2V711.32q0-10.35,6.52-16.88a22.3,22.3,0,0,1,16.43-6.52q10.33,0,17.1,6.52t6.75,16.88V935.87q0,31.5-13.95,56a99.7,99.7,0,0,1-38.25,38.25Q401.11,1043.88,369.16,1043.87Z" style="fill:#ef415f;stroke:#488ccb;stroke-miterlimit:10"/><path d="M656.25,1041.17q-37.35,0-66.37-16a116.74,116.74,0,0,1-45.45-44.1Q528,953,528,916.52q0-36.9,15.53-65a113.57,113.57,0,0,1,43-44.1q27.45-16,63-16,35.1,0,60.3,15.52a101.25,101.25,0,0,1,38.48,42.75q13.26,27.24,13.27,62.78a18.82,18.82,0,0,1-5.85,14.17q-5.85,5.64-14.85,5.63H559.5v-36h180l-18.45,12.6q-.45-22.5-9-40.28a68.31,68.31,0,0,0-24.3-28.12Q672,830.12,649.5,830.12q-25.65,0-43.87,11.25A72.47,72.47,0,0,0,578,872.19q-9.45,19.57-9.45,44.33t11.25,44.1a82.2,82.2,0,0,0,31,30.6q19.8,11.25,45.45,11.25a85.4,85.4,0,0,0,28.58-5.18q14.61-5.16,23.62-11.92a25.61,25.61,0,0,1,14.63-5.18,19.67,19.67,0,0,1,13.72,4.73q7.65,6.75,8.1,14.85t-7.2,14q-15.3,12.15-38,19.8T656.25,1041.17Z" style="fill:#ef415f;stroke:#488ccb;stroke-miterlimit:10"/><path d="M856.05,1039.37q-19.81,0-35.1-10.8T797.1,999.09q-8.57-18.66-8.55-43V710.42q0-9.9,6.3-16.2t16.2-6.3q9.88,0,16.2,6.3t6.3,16.2v245.7q0,16.65,6.3,27.45t16.2,10.8H867.3a18.69,18.69,0,0,1,14.62,6.3q5.63,6.3,5.63,16.2t-8.55,16.2q-8.57,6.3-22,6.3Z" style="fill:#ef415f;stroke:#488ccb;stroke-miterlimit:10"/><path d="M979.79,1038.92q-13.95,0-21.6-14.85l-95.4-201.15a18.27,18.27,0,0,1-.67-15.08q2.91-7.43,11.47-11.47A18.85,18.85,0,0,1,889.12,795,20.76,20.76,0,0,1,901,805.37l89.1,192.15h-21.6l88.2-192.15A20.7,20.7,0,0,1,1069.12,795a22.17,22.17,0,0,1,16.87,1.35,19,19,0,0,1,10.8,11.25,19.46,19.46,0,0,1-.9,15.3l-95.4,201.15Q993.74,1038.92,979.79,1038.92Z" style="fill:#ef415f;stroke:#488ccb;stroke-miterlimit:10"/><path d="M1227.29,1041.17q-37.35,0-66.37-16a116.67,116.67,0,0,1-45.45-44.1Q1099,953,1099,916.52q0-36.9,15.53-65a113.57,113.57,0,0,1,43-44.1q27.45-16,63-16,35.1,0,60.3,15.52a101.25,101.25,0,0,1,38.48,42.75q13.26,27.24,13.27,62.78a18.82,18.82,0,0,1-5.85,14.17q-5.85,5.64-14.85,5.63H1130.54v-36h180l-18.45,12.6q-.45-22.5-9-40.28a68.31,68.31,0,0,0-24.3-28.12q-15.75-10.35-38.25-10.35-25.65,0-43.87,11.25A72.47,72.47,0,0,0,1149,872.19q-9.45,19.57-9.45,44.33t11.25,44.1a82.2,82.2,0,0,0,31,30.6q19.8,11.25,45.45,11.25a85.45,85.45,0,0,0,28.58-5.18q14.61-5.16,23.62-11.92a25.58,25.58,0,0,1,14.63-5.18,19.67,19.67,0,0,1,13.72,4.73q7.65,6.75,8.1,14.85t-7.2,14q-15.3,12.15-38,19.8T1227.29,1041.17Zm-9.45-286.65a22.33,22.33,0,0,1-22.95-22.95q0-9.45,5.4-15.3l44.1-44.1a22.09,22.09,0,0,1,16.2-6.75q10.35,0,16.65,6.75a23.48,23.48,0,0,1,6.3,16.65,26.86,26.86,0,0,1-1.35,8.55,16.43,16.43,0,0,1-5,7.2l-43.65,43.65A21.37,21.37,0,0,1,1217.84,754.52Z" style="fill:#ef415f;stroke:#488ccb;stroke-miterlimit:10"/><path d="M1391.54,1039.82a22.31,22.31,0,0,1-23-22.95V816.17q0-10.35,6.52-16.65t16.43-6.3q10.34,0,16.65,6.3t6.3,16.65v200.7a22.71,22.71,0,0,1-6.3,16.42Q1401.88,1039.82,1391.54,1039.82Zm185,0a22.31,22.31,0,0,1-23-22.95V906.17q0-25.65-9.45-41.85a59.54,59.54,0,0,0-25.43-24.08q-16-7.86-36.67-7.87a75.37,75.37,0,0,0-34.2,7.65,63.78,63.78,0,0,0-24.3,20.47,50,50,0,0,0-9,29.48h-28.35q0-28.35,13.72-50.63A99,99,0,0,1,1437.44,804q23.83-13,53.55-13,31,0,55.57,13.27t38.7,38.93q14.17,25.65,14.18,63v110.7a22.33,22.33,0,0,1-23,22.95Z" style="fill:#ef415f;stroke:#488ccb;stroke-miterlimit:10"/><path d="M1750.18,1029.47q-8.55,3.6-16,.67t-11.93-11.47l-103-195.75q-4.5-8.55-1.12-16.43A21.37,21.37,0,0,1,1630,795q8.55-3.6,16.2-.68t11.7,11.48l98.55,195.75q4.5,8.55,3.38,16.42T1750.18,1029.47Zm-53.1,117.9a28.34,28.34,0,0,1-10.8-2.7q-19.8-9-10.8-28.35l137.25-310q9-18.9,28.35-10.8,20.25,8.55,11.25,28.35l-137.7,309.6Q1709.23,1147.36,1697.08,1147.37Z" style="fill:#ef415f;stroke:#488ccb;stroke-miterlimit:10"/><path d="M369.5,1448.35q-8.4,0-12.95-4.37T352,1430.85V1274.4q0-8.4,4.55-13t12.95-4.55q8.75,0,13.13,4.38T387,1274.4v156.45q0,8.4-4.37,13T369.5,1448.35Zm-.35-119.7q0-21,10.33-37.62a75.71,75.71,0,0,1,27.82-26.43,77.5,77.5,0,0,1,38.5-9.8q21,0,31.33,6.83T485,1277.9a13.46,13.46,0,0,1-4,7.53,13.86,13.86,0,0,1-6.83,3.32,20.66,20.66,0,0,1-8.4-.35q-22.39-4.55-40.25-.7t-28.17,14.35q-10.33,10.5-10.33,26.6Z" style="fill:#ef415f;stroke:#488ccb;stroke-miterlimit:10"/><path d="M580.55,1449.75q-29.06,0-51.62-12.42a90.81,90.81,0,0,1-35.35-34.3q-12.78-21.87-12.78-50.23,0-28.69,12.08-50.57a88.3,88.3,0,0,1,33.42-34.3q21.35-12.42,49-12.43,27.3,0,46.9,12.08a78.71,78.71,0,0,1,29.93,33.25q10.32,21.18,10.32,48.82a14.67,14.67,0,0,1-4.55,11,16,16,0,0,1-11.55,4.37h-141v-28h140l-14.35,9.8a74.92,74.92,0,0,0-7-31.32,53.11,53.11,0,0,0-18.9-21.88q-12.25-8-29.75-8.05-19.95,0-34.12,8.75a56.43,56.43,0,0,0-21.53,24q-7.35,15.23-7.35,34.47t8.75,34.3a63.81,63.81,0,0,0,24.15,23.8q15.4,8.76,35.35,8.75a66.54,66.54,0,0,0,22.23-4,69,69,0,0,0,18.37-9.28,19.91,19.91,0,0,1,11.38-4A15.3,15.3,0,0,1,643.2,1406q6,5.25,6.3,11.55t-5.6,10.85q-11.89,9.45-29.57,15.4A105.8,105.8,0,0,1,580.55,1449.75Z" style="fill:#ef415f;stroke:#488ccb;stroke-miterlimit:10"/><path d="M708.3,1448.7a17.34,17.34,0,0,1-17.85-17.85v-156.1q0-8,5.07-13a17.67,17.67,0,0,1,12.78-4.9q8,0,13,4.9t4.9,13v156.1a17.67,17.67,0,0,1-4.9,12.78Q716.35,1448.7,708.3,1448.7Zm143.85,0a17.34,17.34,0,0,1-17.85-17.85v-86.1q0-19.95-7.35-32.55a46.29,46.29,0,0,0-19.78-18.72q-12.42-6.12-28.52-6.13a58.72,58.72,0,0,0-26.6,6,49.67,49.67,0,0,0-18.9,15.93,38.89,38.89,0,0,0-7,22.92h-22q0-22.05,10.67-39.37A77.11,77.11,0,0,1,744,1265.3q18.54-10.14,41.65-10.15,24.15,0,43.22,10.33a74.43,74.43,0,0,1,30.1,30.27q11,19.95,11,49v86.1a17.35,17.35,0,0,1-17.85,17.85Z" style="fill:#ef415f;stroke:#488ccb;stroke-miterlimit:10"/><path d="M998.45,1449.75q-27.3,0-49.18-12.77a94.59,94.59,0,0,1-34.65-34.83q-12.78-22.05-12.77-49.7t11.72-49.52a90.82,90.82,0,0,1,32-34.65q20.28-12.78,45.85-12.78a86.15,86.15,0,0,1,67.55,31.85v-94.5q0-8,5.07-12.95a17.67,17.67,0,0,1,12.78-4.9q8,0,13,4.9t4.9,12.95v159.6q0,27.66-12.78,49.7a95,95,0,0,1-34.47,34.83Q1025.74,1449.76,998.45,1449.75Zm0-31.5q17.85,0,31.85-8.57a60.76,60.76,0,0,0,22-23.63,70.16,70.16,0,0,0,8.05-33.6q0-18.9-8.05-33.6a61.44,61.44,0,0,0-22-23.27,63.09,63.09,0,0,0-63.53,0,62.19,62.19,0,0,0-22.4,23.27q-8.22,14.7-8.22,33.6a68.91,68.91,0,0,0,8.22,33.6,61.47,61.47,0,0,0,22.4,23.63A60,60,0,0,0,998.45,1418.25Z" style="fill:#ef415f;stroke:#488ccb;stroke-miterlimit:10"/><path d="M1230.14,1449.75q-29.06,0-51.62-12.42a90.81,90.81,0,0,1-35.35-34.3q-12.78-21.87-12.78-50.23,0-28.69,12.08-50.57a88.3,88.3,0,0,1,33.42-34.3q21.34-12.42,49-12.43,27.3,0,46.9,12.08a78.71,78.71,0,0,1,29.93,33.25Q1312,1322,1312,1349.65a14.67,14.67,0,0,1-4.55,11,16,16,0,0,1-11.55,4.37h-141v-28h140l-14.35,9.8a74.92,74.92,0,0,0-7-31.32,53.11,53.11,0,0,0-18.9-21.88q-12.26-8-29.75-8.05-20,0-34.12,8.75a56.43,56.43,0,0,0-21.53,24q-7.35,15.23-7.35,34.47t8.75,34.3a63.81,63.81,0,0,0,24.15,23.8q15.4,8.76,35.35,8.75a66.54,66.54,0,0,0,22.23-4,69,69,0,0,0,18.37-9.28,19.91,19.91,0,0,1,11.38-4,15.3,15.3,0,0,1,10.67,3.67q6,5.25,6.3,11.55t-5.6,10.85q-11.9,9.45-29.57,15.4A105.8,105.8,0,0,1,1230.14,1449.75Z" style="fill:#ef415f;stroke:#488ccb;stroke-miterlimit:10"/><path d="M1385.54,1448.35a46.14,46.14,0,0,1-27.3-8.4,55.69,55.69,0,0,1-18.55-22.92q-6.66-14.52-6.65-33.43V1192.5a17.51,17.51,0,1,1,35,0v191.1q0,13,4.9,21.35t12.6,8.4h8.75a14.56,14.56,0,0,1,11.37,4.9q4.38,4.9,4.38,12.6t-6.65,12.6q-6.66,4.9-17.15,4.9Z" style="fill:#ef415f;stroke:#488ccb;stroke-miterlimit:10"/><path d="M1507,1449.75q-29.06,0-51.62-12.42A90.81,90.81,0,0,1,1420,1403q-12.78-21.87-12.78-50.23,0-28.69,12.08-50.57a88.3,88.3,0,0,1,33.42-34.3q21.35-12.42,49-12.43,27.3,0,46.9,12.08a78.71,78.71,0,0,1,29.93,33.25q10.32,21.18,10.32,48.82a14.67,14.67,0,0,1-4.55,11,16,16,0,0,1-11.55,4.37h-141v-28h140l-14.35,9.8a74.92,74.92,0,0,0-7-31.32,53.11,53.11,0,0,0-18.9-21.88q-12.26-8-29.75-8.05-19.95,0-34.12,8.75a56.43,56.43,0,0,0-21.53,24q-7.35,15.23-7.35,34.47t8.75,34.3a63.81,63.81,0,0,0,24.15,23.8q15.4,8.76,35.35,8.75a66.54,66.54,0,0,0,22.23-4,69,69,0,0,0,18.37-9.28,19.91,19.91,0,0,1,11.38-4,15.3,15.3,0,0,1,10.67,3.67q6,5.25,6.3,11.55t-5.6,10.85q-11.89,9.45-29.57,15.4A105.8,105.8,0,0,1,1507,1449.75Zm-7.35-223a17.35,17.35,0,0,1-17.85-17.85q0-7.35,4.2-11.9l34.3-34.3a17.18,17.18,0,0,1,12.6-5.25q8.05,0,12.95,5.25a18.25,18.25,0,0,1,4.9,13,20.86,20.86,0,0,1-1,6.65,12.73,12.73,0,0,1-3.85,5.6l-33.95,34A16.61,16.61,0,0,1,1499.63,1226.8Z" style="fill:#ef415f;stroke:#488ccb;stroke-miterlimit:10"/><path d="M1686.53,1449.75a132.34,132.34,0,0,1-45.33-7.52q-20.82-7.53-32.37-19.08a15.25,15.25,0,0,1-4.38-12.77,16.85,16.85,0,0,1,6.83-11.73q7-5.6,13.82-4.72a18.94,18.94,0,0,1,11.73,6.12q5.94,6.66,19.07,12.43a71.8,71.8,0,0,0,29.23,5.77q20.3,0,31-6.65t11-17.15q.34-10.5-10-18.2t-37.62-12.6q-35.35-7-51.28-21t-15.92-34.3q0-17.85,10.5-29.57t27-17.5a102.77,102.77,0,0,1,34.3-5.78q23.1,0,41,7.35t28.35,20.3q4.89,5.61,4.55,11.73t-6,10.32q-5.61,3.85-13.3,2.45a25,25,0,0,1-13-6.3,47.77,47.77,0,0,0-18.9-11.55,79.28,79.28,0,0,0-23.45-3.15q-15.41,0-26.08,5.25t-10.67,15.4a20.28,20.28,0,0,0,3.32,11.38q3.33,5.07,13.13,9.1t28.7,7.87q26.25,5.25,41.47,13.3t21.88,18.73a45.72,45.72,0,0,1,6.65,24.67,51.41,51.41,0,0,1-8.58,29.05q-8.58,13-25.2,20.65T1686.53,1449.75Z" style="fill:#ef415f;stroke:#488ccb;stroke-miterlimit:10"/></g></g></svg>