<svg xmlns="http://www.w3.org/2000/svg" xmlns:xlink="http://www.w3.org/1999/xlink" viewBox="0 0 2096 2096"><defs><clipPath id="clip-path"><circle cx="-1067" cy="1047" r="1047" style="fill:none"/></clipPath><clipPath id="clip-path-2"><circle cx="1048" cy="1048" r="1048" style="fill:none"/></clipPath></defs><g id="jelvenyrendeles"><g style="clip-path:url(#clip-path)"><circle cx="-986.29" cy="1069.9" r="1008.83" style="fill:#fff"/></g></g><g id="icon"><g style="clip-path:url(#clip-path-2)"><path d="M2096,1048c0,578.79-469.21,1048-1048,1048S0,1626.79,0,1048,469.21,0,1048,0,2096,469.21,2096,1048ZM1128.78,88.42c-542.62,0-982.5,439.89-982.5,982.5s439.88,982.5,982.5,982.5,982.5-439.88,982.5-982.5S1671.4,88.42,1128.78,88.42Z" style="fill:#fff"/><path d="M1013,1599.14q-86.84,0-155.51-40.17a298.81,298.81,0,0,1-108.88-108.86q-40.17-68.67-40.17-154.22,0-22,14.25-36.29t36.3-14.25q22,0,36.28,14.25t14.27,36.29q0,58.32,27.21,105.63T910,1476q46,27.23,103,27.21t103-27.86a203.48,203.48,0,0,0,72.57-74.53q26.58-46.63,26.58-105V624.57q0-22,14.25-36.28T1265.72,574q22,0,36.28,14.27t14.27,36.28v671.32q0,85.56-40.17,154.22A298.91,298.91,0,0,1,1167.24,1559Q1098.54,1599.14,1013,1599.14Z" style="fill:#fff"/></g></g></svg>