<svg xmlns="http://www.w3.org/2000/svg" xmlns:xlink="http://www.w3.org/1999/xlink" viewBox="0 0 2096 2096"><defs><clipPath id="clip-path"><circle cx="-1066" cy="1048" r="1048" style="fill:none"/></clipPath><clipPath id="clip-path-2"><circle cx="1044.5" cy="1051.5" r="1044.5" style="fill:none"/></clipPath></defs><g id="jelvenydepo"><g style="clip-path:url(#clip-path)"><circle cx="-985.22" cy="1070.93" r="1009.79" style="fill:#fff"/></g></g><g id="bevontgomb"><g style="clip-path:url(#clip-path-2)"><circle cx="1044.5" cy="1051.5" r="1044.5" style="fill:#e9b320"/><circle cx="1125.01" cy="1074.35" r="1006.42" style="fill:#fff"/><path d="M559.76,1045.36q-40.5,0-75.75-15.25a188.29,188.29,0,0,1-61.5-42.5,197.56,197.56,0,0,1-41-63.75q-14.76-36.5-14.75-79,0-42,14.75-78.25a198.17,198.17,0,0,1,41-63.5,192.15,192.15,0,0,1,61.25-42.75q35-15.5,76-15.5,38.49,0,66.25,10t55.75,33a27.77,27.77,0,0,1,6.25,6.25,19,19,0,0,1,3,6.5,34.9,34.9,0,0,1,.75,7.75,21.34,21.34,0,0,1-6.75,16,24.83,24.83,0,0,1-16.5,7q-9.75.5-18.25-6.5A148.54,148.54,0,0,0,612,700.36q-19.75-8.5-52.25-8.5a130.82,130.82,0,0,0-55.5,12,146.44,146.44,0,0,0-45.75,33,152.23,152.23,0,0,0-30.75,48.75,166.42,166.42,0,0,0,0,119,152.23,152.23,0,0,0,30.75,48.75,143,143,0,0,0,45.75,32.75,137.16,137.16,0,0,0,103.75,3,186.2,186.2,0,0,0,43.75-24.25q9-6.5,17.75-5.75a22.44,22.44,0,0,1,14.75,7q6,6.25,6,17.25a28.17,28.17,0,0,1-1.75,9.75,22,22,0,0,1-6.25,8.75,184,184,0,0,1-57.5,32.75A197.19,197.19,0,0,1,559.76,1045.36Zm130.5-62-50-10v-89.5h-69q-11,0-18.5-6.5a21.9,21.9,0,0,1,0-33q7.5-6.5,18.5-6.5h93.5q11.49,0,18.5,7.25t7,18.75Z" style="fill:#e9b320"/><path d="M847.26,1042.36q-40.5,0-71.5-17.75a128.61,128.61,0,0,1-48.75-49q-17.76-31.25-17.75-71.75,0-41,17.75-72.25a128.61,128.61,0,0,1,48.75-49q31-17.75,71.5-17.75,40,0,71,17.75a128.75,128.75,0,0,1,48.75,49q17.75,31.25,17.75,72.25,0,40.5-17.5,71.75a126.94,126.94,0,0,1-48.5,49Q887.76,1042.36,847.26,1042.36Zm0-45q26,0,46-12a83.94,83.94,0,0,0,31.25-33q11.25-21,11.25-48.5t-11.25-48.75a83.49,83.49,0,0,0-31.25-33.25q-20-12-46-12t-46,12a85.14,85.14,0,0,0-31.5,33.25q-11.5,21.25-11.5,48.75t11.5,48.5a85.62,85.62,0,0,0,31.5,33Q821.26,997.36,847.26,997.36Z" style="fill:#e9b320"/><path d="M1061.25,1040.86a24.79,24.79,0,0,1-25.5-25.5V792.86q0-11.5,7.25-18.5t18.25-7q11.51,0,18.5,7t7,18.5v222.5q0,11-7,18.25T1061.25,1040.86Zm167,0a24.79,24.79,0,0,1-25.5-25.5v-143q0-31.5-15.5-46.75t-40.5-15.25q-26,0-43,18t-17,46h-31.5q0-32.5,13-57.25a97.37,97.37,0,0,1,36-38.75q23-14,52.5-14,28.5,0,50.5,12.5t34.25,36.75q12.26,24.25,12.25,58.75v143q0,11-7,18.25T1228.25,1040.86Zm166.5,0a24.79,24.79,0,0,1-25.5-25.5v-143q0-31.5-15.5-46.75t-40.5-15.25q-26,0-42.75,18t-16.75,46h-41.5q0-32.5,14-57.25a99.71,99.71,0,0,1,39.25-38.75q25.24-14,57.75-14,28.5,0,50.5,12.5T1408,813.61q12.26,24.25,12.25,58.75v143q0,11-7,18.25T1394.75,1040.86Z" style="fill:#e9b320"/><path d="M1617.25,1042.36q-39,0-70-18.25a133.68,133.68,0,0,1-49-49.75q-18-31.5-18.5-71v-228q0-11.5,7.25-18.5t18.25-7q11.49,0,18.5,7t7,18.5v135A128.63,128.63,0,0,1,1573,777.11q24.75-12.25,54.25-12.25,36.49,0,65.5,18.25a129.8,129.8,0,0,1,45.75,49.5q16.74,31.25,16.75,70.75t-18.25,71a135.69,135.69,0,0,1-49.25,49.75Q1656.75,1042.37,1617.25,1042.36Zm0-45q25.5,0,45.5-12.25a88.6,88.6,0,0,0,31.75-33.75q11.74-21.5,11.75-48,0-27-11.75-48a89.6,89.6,0,0,0-31.75-33.25q-20-12.25-45.5-12.25-25,0-45.25,12.25a87,87,0,0,0-31.75,33.25q-11.51,21-11.5,48,0,26.5,11.5,48A86,86,0,0,0,1572,985.11Q1592.25,997.37,1617.25,997.36Z" style="fill:#e9b320"/><path d="M707.48,1450.17q-33.75,0-59.62-16t-40.73-44.1q-14.85-28.12-14.85-64.57,0-36.9,16-65a115.78,115.78,0,0,1,43.87-44.1q27.9-16,64.35-16,36,0,63.9,16a115.87,115.87,0,0,1,43.88,44.1q16,28.13,16,65H813.68q0,36.45-13.72,64.57t-37.58,44.1Q738.53,1450.17,707.48,1450.17Zm8.1,100.35a143.87,143.87,0,0,1-59.85-12.6,126,126,0,0,1-47.25-36.9q-5.85-7.66-4.27-15.75a20,20,0,0,1,8.77-13q8.1-5.4,16.88-3.6a22.84,22.84,0,0,1,14.17,9,83.18,83.18,0,0,0,30.6,23.85q18.45,8.54,41.85,8.55a79.38,79.38,0,0,0,39.83-10.35q18.23-10.37,29-30.6t10.8-49.5v-63.9l14.85-39.6,29.25,9.45v97.2q0,35.55-15.75,64.57a120.2,120.2,0,0,1-43.87,46.13Q752.49,1550.51,715.58,1550.52Zm.9-140.85q23.4,0,41.4-10.8a75.53,75.53,0,0,0,28.13-29.7q10.13-18.9,10.12-43.65T786,1281.64a75.14,75.14,0,0,0-28.13-29.92q-18-10.8-41.4-10.8t-41.4,10.8a76.72,76.72,0,0,0-28.35,29.92q-10.35,19.14-10.35,43.88t10.35,43.65a77.14,77.14,0,0,0,28.35,29.7Q693.08,1409.67,716.48,1409.67Z" style="fill:#e9b320"/><path d="M983.33,1438.47q-8.57,3.6-16,.67t-11.92-11.47l-103-195.75q-4.5-8.55-1.13-16.43A21.36,21.36,0,0,1,863.18,1204q8.54-3.6,16.2-.68t11.7,11.48l98.55,195.75q4.49,8.55,3.37,16.42T983.33,1438.47Zm-53.1,117.9a28.25,28.25,0,0,1-10.8-2.7q-19.81-9-10.8-28.35l137.25-310q9-18.9,28.35-10.8,20.25,8.55,11.25,28.35l-137.7,309.6Q942.38,1556.36,930.23,1556.37Z" style="fill:#e9b320"/><path d="M1199.78,1450.17q-32.87,0-59-16.43a116.66,116.66,0,0,1-41.18-44.55q-15.08-28.11-15.07-63.67t16.42-63.9a121.51,121.51,0,0,1,44.55-44.78q28.13-16.42,63.23-16.42t63,16.42a122.11,122.11,0,0,1,44.32,44.78q16.43,28.35,16.43,63.9H1315q0,35.55-15.08,63.67a116.79,116.79,0,0,1-41.17,44.55Q1232.61,1450.18,1199.78,1450.17Zm9-40.5q23,0,41-11a78.46,78.46,0,0,0,28.35-30.15q10.34-19.12,10.35-43,0-24.3-10.35-43.43a78.53,78.53,0,0,0-28.35-30.15q-18-11-41-11a77.13,77.13,0,0,0-40.73,11,79.51,79.51,0,0,0-28.8,30.15q-10.57,19.13-10.57,43.43,0,23.85,10.57,43a79.44,79.44,0,0,0,28.8,30.15A77,77,0,0,0,1208.78,1409.67Zm1.8-246.15a22.31,22.31,0,0,1-22.95-23q0-9.45,5.4-15.3l44.1-44.1a22.09,22.09,0,0,1,16.2-6.75q10.34,0,16.65,6.75a23.52,23.52,0,0,1,6.3,16.65,26.86,26.86,0,0,1-1.35,8.55,16.51,16.51,0,0,1-5,7.2l-43.65,43.65A21.38,21.38,0,0,1,1210.58,1163.52Zm99,285.3a22.31,22.31,0,0,1-22.95-23V1357l8.55-47.7,37.35,16.2v100.35a22.33,22.33,0,0,1-23,23Z" style="fill:#e9b320"/><path d="M1400.92,1448.37q-10.8,0-16.65-5.63t-5.85-16.87V1224.72q0-10.8,5.85-16.65t16.65-5.85q11.25,0,16.88,5.62t5.62,16.88v201.15q0,10.8-5.62,16.65T1400.92,1448.37Zm-.45-153.9q0-27,13.28-48.38a97.2,97.2,0,0,1,35.77-34,99.58,99.58,0,0,1,49.5-12.6q27,0,40.28,8.77t10.12,20.93a17.32,17.32,0,0,1-5.17,9.67,17.93,17.93,0,0,1-8.78,4.28,26.65,26.65,0,0,1-10.8-.45q-28.8-5.85-51.75-.9t-36.22,18.45q-13.29,13.5-13.28,34.2Z" style="fill:#e9b320"/></g></g></svg>