<svg xmlns="http://www.w3.org/2000/svg" viewBox="0 0 2000 500"><g id="jelvenydepo-1"><path d="M94.7,353.26q-23.26,0-41.37-10.14a72,72,0,0,1-28.24-28.24Q14.95,296.77,15,273.51a16.58,16.58,0,0,1,5-12.46,17,17,0,0,1,12.29-4.82,16.52,16.52,0,0,1,17.28,17.28q0,14.3,5.82,25.25a43.22,43.22,0,0,0,16,17.12A44.22,44.22,0,0,0,94.7,322a45.1,45.1,0,0,0,23.59-6.14,42.92,42.92,0,0,0,16.12-17.12q5.81-11,5.81-25.25V107.7A16.86,16.86,0,0,1,145,95.24a16.46,16.46,0,0,1,12.13-4.82,17.43,17.43,0,0,1,12.63,4.82,16.56,16.56,0,0,1,5,12.46V273.51q0,23.26-10.3,41.37a73.54,73.54,0,0,1-28.24,28.24Q118.3,353.26,94.7,353.26Z" style="fill:#29a3dc"/><path d="M306.7,351.26q-27.58,0-49-11.79a86.25,86.25,0,0,1-33.57-32.57Q212,286.14,212,259.22q0-27.24,11.46-48a83.84,83.84,0,0,1,31.73-32.57q20.26-11.79,46.52-11.79,25.92,0,44.53,11.46a74.72,74.72,0,0,1,28.41,31.57q9.8,20.1,9.8,46.35a13.91,13.91,0,0,1-4.32,10.47,15.16,15.16,0,0,1-11,4.15H235.26V244.27H368.17l-13.62,9.3a71.29,71.29,0,0,0-6.65-29.74A50.51,50.51,0,0,0,330,203.06q-11.64-7.63-28.25-7.64-18.93,0-32.39,8.31a53.45,53.45,0,0,0-20.44,22.76q-7,14.46-7,32.73t8.31,32.57a60.59,60.59,0,0,0,22.93,22.59q14.61,8.31,33.56,8.31a63,63,0,0,0,21.1-3.82,65.81,65.81,0,0,0,17.44-8.81,18.89,18.89,0,0,1,10.8-3.82,14.52,14.52,0,0,1,10.14,3.49q5.64,5,6,11T366.84,331q-11.29,9-28.08,14.62A100.31,100.31,0,0,1,306.7,351.26Z" style="fill:#29a3dc"/><path d="M454.23,349.94a43.8,43.8,0,0,1-25.92-8A53,53,0,0,1,410.7,320.2q-6.31-13.79-6.31-31.74V107a16.62,16.62,0,1,1,33.23,0V288.46q0,12.3,4.65,20.27t12,8h8.31a13.84,13.84,0,0,1,10.8,4.65,17.32,17.32,0,0,1,4.15,12q0,7.32-6.31,12t-16.29,4.66Z" style="fill:#29a3dc"/><path d="M545.61,349.6q-10.3,0-16-11L459.21,190.11a13.54,13.54,0,0,1-.5-11.14q2.16-5.47,8.48-8.47a13.92,13.92,0,0,1,11.46-1,15.36,15.36,0,0,1,8.81,7.65L553.25,319h-16l65.13-141.88a15.27,15.27,0,0,1,9.13-7.65,16.42,16.42,0,0,1,12.47,1,14,14,0,0,1,8,8.31,14.38,14.38,0,0,1-.66,11.3L560.89,338.64Q555.91,349.61,545.61,349.6Z" style="fill:#29a3dc"/><path d="M728.36,351.26q-27.58,0-49-11.79a86.16,86.16,0,0,1-33.56-32.57q-12.13-20.76-12.13-47.68,0-27.24,11.46-48a83.86,83.86,0,0,1,31.74-32.57q20.26-11.79,46.52-11.79,25.92,0,44.52,11.46a74.65,74.65,0,0,1,28.41,31.57q9.81,20.1,9.81,46.35a14,14,0,0,1-4.32,10.47,15.18,15.18,0,0,1-11,4.15H656.92V244.27H789.84l-13.63,9.3a71.28,71.28,0,0,0-6.64-29.74,50.47,50.47,0,0,0-18-20.77q-11.62-7.63-28.24-7.64-18.95,0-32.4,8.31a53.57,53.57,0,0,0-20.44,22.76q-7,14.46-7,32.73t8.3,32.57a60.66,60.66,0,0,0,22.93,22.59q14.63,8.31,33.56,8.31a63,63,0,0,0,21.1-3.82,65.88,65.88,0,0,0,17.45-8.81,18.87,18.87,0,0,1,10.8-3.82,14.51,14.51,0,0,1,10.13,3.49q5.65,5,6,11T788.51,331q-11.31,9-28.08,14.62A100.37,100.37,0,0,1,728.36,351.26Zm-7-211.66a16.48,16.48,0,0,1-16.94-16.95q0-7,4-11.3L741,78.79a16.31,16.31,0,0,1,12-5q7.63,0,12.3,5a17.33,17.33,0,0,1,4.65,12.29,19.73,19.73,0,0,1-1,6.32,12,12,0,0,1-3.65,5.31L733,135A15.81,15.81,0,0,1,721.38,139.6Z" style="fill:#29a3dc"/><path d="M849.64,350.27a16.46,16.46,0,0,1-16.94-16.95V185.12q0-7.63,4.81-12.29a16.78,16.78,0,0,1,12.13-4.66c5.1,0,9.19,1.56,12.3,4.66s4.65,7.2,4.65,12.29v148.2a16.75,16.75,0,0,1-4.65,12.13C858.83,348.66,854.74,350.27,849.64,350.27Zm136.57,0a16.46,16.46,0,0,1-16.94-16.95V251.58q0-18.95-7-30.9a43.91,43.91,0,0,0-18.78-17.78q-11.79-5.81-27.08-5.82a55.75,55.75,0,0,0-25.25,5.65,47.13,47.13,0,0,0-17.94,15.12,36.91,36.91,0,0,0-6.65,21.77H845.66q0-20.94,10.13-37.39a73.13,73.13,0,0,1,27.75-26.08q17.61-9.63,39.54-9.64,22.92,0,41,9.81a70.67,70.67,0,0,1,28.57,28.74q10.47,18.94,10.47,46.52v81.74a16.48,16.48,0,0,1-16.95,16.95Z" style="fill:#29a3dc"/><path d="M1114.47,342.62q-6.32,2.67-11.79.5t-8.81-8.47l-76.09-144.54q-3.33-6.31-.83-12.13a15.78,15.78,0,0,1,8.8-8.48,15.56,15.56,0,0,1,12-.49,15.72,15.72,0,0,1,8.64,8.47L1119.12,322a19.78,19.78,0,0,1,2.5,12.13Q1120.78,340,1114.47,342.62Zm-39.21,87.06a20.89,20.89,0,0,1-8-2q-14.62-6.65-8-20.93l101.35-228.95q6.64-14,20.94-8,14.94,6.32,8.3,20.93L1088.22,419.38Q1084.23,429.69,1075.26,429.68Z" style="fill:#29a3dc"/><path d="M1281,351.26q-25.92,0-46.69-12.12a89.65,89.65,0,0,1-32.89-33.07q-12.13-20.93-12.13-47.18t11.13-47a86.24,86.24,0,0,1,30.4-32.9q19.27-12.12,43.53-12.12a81.76,81.76,0,0,1,64.13,30.23V107.37c0-5.1,1.61-9.19,4.82-12.3a16.75,16.75,0,0,1,12.13-4.65q7.63,0,12.29,4.65c3.1,3.11,4.66,7.2,4.66,12.3V258.89q0,26.25-12.13,47.18a90.2,90.2,0,0,1-32.73,33.07Q1306.86,351.28,1281,351.26Zm0-29.9a56.74,56.74,0,0,0,30.24-8.14,57.67,57.67,0,0,0,20.93-22.43,66.6,66.6,0,0,0,7.64-31.9q0-17.94-7.64-31.9a58.37,58.37,0,0,0-20.93-22.1,59.92,59.92,0,0,0-60.31,0,59,59,0,0,0-21.27,22.1q-7.81,13.95-7.81,31.9a65.36,65.36,0,0,0,7.81,31.9,58.28,58.28,0,0,0,21.27,22.43A56.92,56.92,0,0,0,1281,321.36Z" style="fill:#29a3dc"/><path d="M1500.92,351.26q-27.59,0-49-11.79a86.29,86.29,0,0,1-33.56-32.57q-12.12-20.76-12.13-47.68,0-27.24,11.47-48a83.84,83.84,0,0,1,31.73-32.57q20.27-11.79,46.52-11.79,25.92,0,44.53,11.46a74.78,74.78,0,0,1,28.41,31.57q9.8,20.1,9.8,46.35a13.91,13.91,0,0,1-4.32,10.47,15.16,15.16,0,0,1-11,4.15H1429.48V244.27h132.91l-13.62,9.3a71.29,71.29,0,0,0-6.65-29.74,50.51,50.51,0,0,0-17.94-20.77q-11.64-7.63-28.25-7.64-18.93,0-32.39,8.31a53.45,53.45,0,0,0-20.44,22.76q-7,14.46-7,32.73t8.31,32.57a60.59,60.59,0,0,0,22.93,22.59q14.61,8.31,33.56,8.31a63,63,0,0,0,21.1-3.82,65.81,65.81,0,0,0,17.44-8.81,18.89,18.89,0,0,1,10.8-3.82,14.54,14.54,0,0,1,10.14,3.49q5.64,5,6,11T1561.06,331q-11.3,9-28.08,14.62A100.36,100.36,0,0,1,1500.92,351.26Z" style="fill:#29a3dc"/><path d="M1622.2,427.69a16.48,16.48,0,0,1-17-16.95V259.22q.33-26.25,12.29-47.18A88.88,88.88,0,0,1,1650.11,179q20.6-12.12,46.52-12.12,26.25,0,46.85,12.12A90.2,90.2,0,0,1,1776.21,212q12.13,20.93,12.13,47.18t-11.13,47a86.19,86.19,0,0,1-30.41,32.9q-19.26,12.14-43.52,12.12a80.12,80.12,0,0,1-36.06-8.14A85.57,85.57,0,0,1,1639.14,321v89.71a16.77,16.77,0,0,1-4.65,12.13Q1629.84,427.68,1622.2,427.69Zm74.43-106.33a56.69,56.69,0,0,0,30.24-8.14A59.25,59.25,0,0,0,1748,291a64.48,64.48,0,0,0,7.81-31.73q0-17.94-7.81-32.06a59.25,59.25,0,0,0-21.1-22.27,59.92,59.92,0,0,0-60.31,0,57.46,57.46,0,0,0-21.1,22.27q-7.65,14.11-7.65,32.06a65.48,65.48,0,0,0,7.65,31.73,57.13,57.13,0,0,0,51.17,30.41Z" style="fill:#29a3dc"/><path d="M1904.64,351.26q-26.92,0-47.52-11.79a85.39,85.39,0,0,1-32.4-32.57q-11.79-20.76-11.79-47.68,0-27.24,11.79-48a85.46,85.46,0,0,1,32.4-32.57q20.6-11.79,47.52-11.79,26.58,0,47.18,11.79a85.53,85.53,0,0,1,32.4,32.57q11.79,20.76,11.8,48,0,26.91-11.63,47.68a84.3,84.3,0,0,1-32.24,32.57Q1931.56,351.26,1904.64,351.26Zm0-29.9q17.27,0,30.57-8A55.73,55.73,0,0,0,1956,291.45q7.47-13.95,7.47-32.23t-7.47-32.4a55.5,55.5,0,0,0-20.77-22.09q-13.29-8-30.57-8t-30.57,8a56.68,56.68,0,0,0-20.94,22.09q-7.64,14.13-7.64,32.4t7.64,32.23a56.93,56.93,0,0,0,20.94,21.93Q1887.36,321.36,1904.64,321.36Z" style="fill:#29a3dc"/></g></svg>