<svg xmlns="http://www.w3.org/2000/svg" viewBox="0 0 2000 500"><g id="jelvenydepo-1"><path d="M184.33,373.23a149.48,149.48,0,0,1-108.86-45.8A156.7,156.7,0,0,1,43,276.87q-11.7-29-11.7-62.66A163.06,163.06,0,0,1,43,152.15a157.36,157.36,0,0,1,32.52-50.37,152.54,152.54,0,0,1,48.58-33.9q27.75-12.3,60.28-12.3,30.53,0,52.54,7.93t44.22,26.18a22,22,0,0,1,5,5,15.07,15.07,0,0,1,2.38,5.15A28.12,28.12,0,0,1,289,106a16.93,16.93,0,0,1-5.35,12.69,19.65,19.65,0,0,1-13.09,5.55q-7.74.41-14.47-5.16A118.24,118.24,0,0,0,225.77,99.6q-15.68-6.73-41.44-6.74a103.65,103.65,0,0,0-44,9.52A116.2,116.2,0,0,0,104,128.55a121,121,0,0,0-24.39,38.67,132,132,0,0,0,0,94.38A121.07,121.07,0,0,0,104,300.27a113.56,113.56,0,0,0,36.29,26,108.79,108.79,0,0,0,82.29,2.38,147.84,147.84,0,0,0,34.7-19.23q7.13-5.16,14.07-4.56a17.78,17.78,0,0,1,11.7,5.55q4.77,5,4.76,13.68a22,22,0,0,1-1.39,7.73,17.31,17.31,0,0,1-4.95,6.94,145.76,145.76,0,0,1-45.61,26A156.33,156.33,0,0,1,184.33,373.23Zm103.5-49.17-39.66-7.93v-71H193.45A21.57,21.57,0,0,1,178.78,240a17.37,17.37,0,0,1,0-26.18,21.62,21.62,0,0,1,14.67-5.15h74.16q9.11,0,14.67,5.75t5.55,14.87Z" style="fill:#e9b320"/><path d="M412.35,370.85q-32.12,0-56.71-14.07A101.94,101.94,0,0,1,317,317.91Q302.9,293.13,302.9,261q0-32.52,14.08-57.31a102,102,0,0,1,38.66-38.86q24.58-14.07,56.71-14.08,31.72,0,56.32,14.08a102.12,102.12,0,0,1,38.66,38.86Q521.4,228.5,521.41,261q0,32.12-13.88,56.9a100.63,100.63,0,0,1-38.47,38.87Q444.48,370.85,412.35,370.85Zm0-35.69q20.63,0,36.49-9.51a66.6,66.6,0,0,0,24.78-26.18q8.92-16.65,8.93-38.46t-8.93-38.67A66.25,66.25,0,0,0,448.84,196q-15.87-9.53-36.49-9.52T375.87,196a67.5,67.5,0,0,0-25,26.37q-9.13,16.86-9.13,38.67t9.13,38.46a67.87,67.87,0,0,0,25,26.18Q391.73,335.16,412.35,335.16Z" style="fill:#e9b320"/><path d="M582.08,369.67a19.66,19.66,0,0,1-20.22-20.23V173q0-9.12,5.75-14.68a20,20,0,0,1,14.47-5.55q9.12,0,14.67,5.55T602.31,173V349.44a20,20,0,0,1-5.56,14.48Q591.2,369.67,582.08,369.67Zm132.45,0a19.66,19.66,0,0,1-20.22-20.23V236q0-25-12.29-37.08t-32.13-12.09q-20.62,0-34.1,14.27t-13.48,36.49h-25q0-25.77,10.31-45.41a77.09,77.09,0,0,1,28.56-30.73q18.22-11.1,41.64-11.11,22.59,0,40,9.92T725,189.42q9.72,19.25,9.72,46.6V349.44a20,20,0,0,1-5.55,14.48Q723.65,369.67,714.53,369.67Zm132.06,0a19.66,19.66,0,0,1-20.22-20.23V236q0-25-12.3-37.08T782,186.85q-20.62,0-33.91,14.27t-13.28,36.49H701.84q0-25.77,11.11-45.41a79,79,0,0,1,31.13-30.73q20-11.1,45.8-11.11,22.61,0,40.06,9.92t27.16,29.14q9.72,19.25,9.72,46.6V349.44a20,20,0,0,1-5.56,14.48Q855.71,369.67,846.59,369.67Z" style="fill:#e9b320"/><path d="M1023.06,370.85q-30.93,0-55.52-14.47a105.87,105.87,0,0,1-38.86-39.46q-14.28-25-14.68-56.31V79.77q0-9.12,5.75-14.67a20,20,0,0,1,14.48-5.55q9.12,0,14.67,5.55t5.55,14.67V186.85A102.13,102.13,0,0,1,988,160.48a95.63,95.63,0,0,1,43-9.72q29,0,52,14.47a103,103,0,0,1,36.29,39.26q13.27,24.8,13.28,56.12T1118,316.92A107.6,107.6,0,0,1,1079,356.38Q1054.38,370.85,1023.06,370.85Zm0-35.69q20.22,0,36.09-9.71a70.2,70.2,0,0,0,25.18-26.77,78.11,78.11,0,0,0,9.32-38.07q0-21.42-9.32-38.07a71,71,0,0,0-25.18-26.37q-15.87-9.72-36.09-9.72a68,68,0,0,0-35.89,9.72A68.92,68.92,0,0,0,962,222.54q-9.13,16.65-9.12,38.07,0,21,9.12,38.07a67.85,67.85,0,0,0,61.07,36.48Z" style="fill:#e9b320"/><path d="M1263.38,370.85q-29.75,0-52.55-14.07t-35.89-38.87q-13.08-24.78-13.09-56.9,0-32.52,14.08-57.31a102,102,0,0,1,38.67-38.86q24.59-14.07,56.71-14.08,31.73,0,56.31,14.08a102.14,102.14,0,0,1,38.67,38.86q14.07,24.8,14.07,57.31H1357q0,32.12-12.1,56.9t-33.11,38.87Q1290.73,370.85,1263.38,370.85Zm7.13,88.44a126.82,126.82,0,0,1-52.74-11.1,111,111,0,0,1-41.64-32.52q-5.16-6.75-3.77-13.88a17.63,17.63,0,0,1,7.74-11.5,19,19,0,0,1,14.87-3.18,20.19,20.19,0,0,1,12.49,7.94,73.1,73.1,0,0,0,27,21q16.24,7.53,36.88,7.54a69.82,69.82,0,0,0,35.09-9.12q16.06-9.14,25.58-27t9.52-43.62V287.58l13.09-34.9,25.77,8.33v85.65q0,31.33-13.88,56.91a105.84,105.84,0,0,1-38.66,40.65Q1303,459.28,1270.51,459.29Zm.8-124.13q20.61,0,36.48-9.51a66.62,66.62,0,0,0,24.79-26.18q8.93-16.65,8.92-38.46t-8.92-38.67A66.27,66.27,0,0,0,1307.79,196q-15.87-9.53-36.48-9.52T1234.82,196a67.64,67.64,0,0,0-25,26.37q-9.13,16.86-9.12,38.67t9.12,38.46a68,68,0,0,0,25,26.18Q1250.68,335.16,1271.31,335.16Z" style="fill:#e9b320"/><path d="M1506.47,360.54q-7.54,3.18-14.08.6T1481.88,351l-90.81-172.51q-4-7.53-1-14.48a18.89,18.89,0,0,1,10.51-10.11q7.53-3.17,14.28-.59t10.31,10.11L1512,336q4,7.53,3,14.47T1506.47,360.54Zm-46.8,103.9a25.07,25.07,0,0,1-9.52-2.37q-17.45-7.95-9.51-25l120.95-273.23q7.94-16.66,25-9.52,17.85,7.53,9.92,25L1475.14,452.15Q1470.39,464.43,1459.67,464.44Z" style="fill:#e9b320"/><path d="M1697.21,370.85q-28.95,0-52-14.47A102.79,102.79,0,0,1,1609,317.12q-13.29-24.78-13.29-56.11t14.48-56.32a107.15,107.15,0,0,1,39.26-39.46q24.78-14.46,55.72-14.47t55.52,14.47a107.75,107.75,0,0,1,39.06,39.46q14.48,25,14.47,56.32h-15.46q0,31.32-13.29,56.11a102.86,102.86,0,0,1-36.28,39.26Q1726.16,370.85,1697.21,370.85Zm7.94-35.69q20.22,0,36.08-9.71a69.12,69.12,0,0,0,25-26.57q9.12-16.86,9.12-37.87,0-21.42-9.12-38.27a69.12,69.12,0,0,0-25-26.57q-15.86-9.72-36.08-9.72a67.92,67.92,0,0,0-35.89,9.72,70,70,0,0,0-25.38,26.57q-9.33,16.86-9.32,38.27,0,21,9.32,37.87a70,70,0,0,0,25.38,26.57A67.91,67.91,0,0,0,1705.15,335.16Zm1.58-216.92A19.66,19.66,0,0,1,1686.51,98q0-8.34,4.76-13.49l38.86-38.86a19.46,19.46,0,0,1,14.28-6q9.12,0,14.67,6a20.69,20.69,0,0,1,5.55,14.67,23.49,23.49,0,0,1-1.19,7.54,14.41,14.41,0,0,1-4.36,6.34l-38.47,38.47A18.82,18.82,0,0,1,1706.73,118.24ZM1794,369.67a19.66,19.66,0,0,1-20.23-20.23V288.77l7.54-42L1814.2,261v88.43A19.66,19.66,0,0,1,1794,369.67Z" style="fill:#e9b320"/><path d="M1874.48,369.27q-9.52,0-14.68-5t-5.15-14.87V172.17q0-9.51,5.15-14.67t14.68-5.15q9.9,0,14.87,5t5,14.87V349.44q0,9.53-5,14.67T1874.48,369.27Zm-.4-135.63q0-23.79,11.7-42.63a85.64,85.64,0,0,1,31.53-29.94,87.76,87.76,0,0,1,43.62-11.1q23.79,0,35.49,7.73t8.92,18.44a15.2,15.2,0,0,1-4.56,8.53,15.68,15.68,0,0,1-7.73,3.76,23.35,23.35,0,0,1-9.52-.39q-25.38-5.16-45.6-.8T1906,203.5q-11.7,11.9-11.7,30.14Z" style="fill:#e9b320"/></g></svg>