<?xml version="1.0" standalone="no"?>
<!DOCTYPE svg PUBLIC "-//W3C//DTD SVG 20010904//EN"
 "http://www.w3.org/TR/2001/REC-SVG-20010904/DTD/svg10.dtd">
<svg version="1.0" xmlns="http://www.w3.org/2000/svg"
 width="700.000000pt" height="700.000000pt" viewBox="0 0 700.000000 700.000000"
 preserveAspectRatio="xMidYMid meet">
<metadata>
Created by potrace 1.14, written by Peter Selinger 2001-2017
</metadata>
<g transform="translate(0.000000,700.000000) scale(0.100000,-0.100000)"
fill="#000000" stroke="none">
<path d="M3427 6704 c-1 -1 -58 -4 -127 -8 -69 -3 -134 -8 -145 -10 -11 -2
-47 -7 -80 -10 -362 -40 -818 -194 -1165 -394 -998 -575 -1609 -1623 -1613
-2767 0 -115 11 -354 18 -365 1 -3 6 -34 9 -70 19 -189 85 -456 168 -685 282
-773 868 -1420 1613 -1779 327 -158 639 -248 1040 -301 137 -18 434 -23 585
-11 133 11 307 35 439 61 307 60 714 224 1001 401 103 64 146 97 70 54 -78
-44 -225 -117 -295 -147 -33 -14 -73 -31 -90 -38 -16 -7 -59 -23 -95 -35 -36
-12 -74 -26 -85 -30 -39 -16 -255 -72 -335 -86 -14 -3 -32 -7 -40 -9 -33 -10
-241 -36 -335 -42 -173 -12 -461 -6 -565 11 -14 2 -50 7 -80 11 -69 8 -290 52
-350 70 -258 77 -375 122 -561 215 -179 90 -454 264 -544 347 -12 10 -50 42
-85 72 -312 261 -606 658 -781 1053 -91 204 -193 540 -214 702 -1 12 -6 41
-10 66 -43 267 -41 664 5 930 5 30 12 71 15 90 13 74 58 249 91 352 181 562
536 1071 1004 1442 62 49 314 218 375 251 297 163 559 262 856 324 90 19 121
24 199 36 257 38 611 38 860 -1 25 -3 54 -8 65 -9 56 -7 244 -51 348 -81 378
-109 801 -336 1098 -591 261 -223 539 -563 685 -837 25 -48 47 -86 49 -86 6 0
-51 121 -91 197 -162 303 -359 564 -603 801 -539 526 -1273 854 -2006 897
-105 7 -294 12 -298 9z"/>
<path d="M4184 5228 c-59 -12 -111 -65 -119 -120 -3 -24 -7 -576 -8 -1228 -3
-1088 -4 -1190 -20 -1243 -91 -308 -347 -505 -657 -505 -180 0 -339 65 -469
191 -126 122 -192 274 -207 471 -7 109 -26 146 -91 180 -74 38 -175 10 -222
-61 -21 -32 -24 -48 -22 -122 0 -47 3 -97 6 -111 2 -13 7 -42 10 -63 10 -67
45 -169 87 -253 145 -293 424 -495 748 -542 25 -4 108 -7 185 -6 152 1 241 18
372 70 254 102 468 326 559 585 59 168 57 118 58 1429 2 1192 1 1205 -19 1244
-36 71 -105 101 -191 84z"/>
</g>
</svg>
